<svg width="535" height="237" viewBox="0 0 535 237" fill="none" xmlns="http://www.w3.org/2000/svg">
<path d="M0.934082 37.1655C0.934082 16.6904 17.6239 0.140627 38.0983 0.313143L500.845 4.21221C519.755 4.37154 535 19.746 535 38.6564V38.6564C535 54.1385 524.671 67.7184 509.75 71.8516L494.885 75.9696C442.649 90.4403 443.072 164.658 495.469 178.532L515.156 183.745C526.854 186.843 535 197.427 535 209.528V209.528C535 224.375 522.876 236.364 508.029 236.197L24.3884 230.763C11.3925 230.617 0.934082 220.041 0.934082 207.044V207.044C0.934082 196.382 8.04817 187.03 18.3237 184.184L39.7776 178.242C91.2515 163.986 91.6826 91.1505 40.3811 76.2863L27.5316 72.5633C11.776 67.9982 0.934082 53.5691 0.934082 37.1655V37.1655Z" fill="#F4F4F4"/>
</svg>
