<svg width="130" height="130" viewBox="0 0 130 130" fill="none" xmlns="http://www.w3.org/2000/svg">
<circle cx="65" cy="65" r="62.5" fill="#EEEEEE" stroke="#767676" stroke-width="5"/>
<path d="M52.4363 51.0694L56.1905 52.5248C63.4739 55.344 73.0605 61.0511 77.3784 72.2266L79.0387 76.5314L97.7583 55.1759C100.002 52.6206 101.5 49.4971 102.091 46.1489C103.22 39.7416 101.015 33.3523 96.1936 29.0591C88.6165 22.3168 76.9923 23.0608 70.279 30.7167L52.4363 51.0694ZM92.4796 33.2964C95.8322 36.278 97.3649 40.7229 96.5795 45.1771C96.17 47.4996 95.1286 49.6674 93.5705 51.449L80.7238 66.1016C75.8756 57.1051 68.0334 51.8036 61.8594 48.8349L74.4697 34.4437C79.1359 29.1232 87.2152 28.6078 92.4796 33.2964Z" fill="#5A5A5A"/>
<path d="M58.1866 99.1904L74.9235 80.1L74.826 79.6746C74.2079 76.9959 73.2672 74.621 72.1337 72.4713L56.0431 90.8613C55.4315 91.5562 54.3799 91.6259 53.6916 91.0105C53.2395 90.6119 53.056 90.0174 53.1541 89.4611C53.2058 89.1679 53.3338 88.8843 53.5463 88.6409C53.5463 88.6409 70.1967 69.8045 70.4985 69.7192C64.5214 60.8805 54.9305 57.0143 50.2641 55.5981L49.7493 55.4409L31.9096 75.7994C29.763 78.2453 28.333 81.2309 27.7689 84.4301C26.6884 90.5579 28.7985 96.6648 33.4092 100.771C40.6531 107.221 51.769 106.509 58.1866 99.1904Z" fill="#5A5A5A"/>
</svg>
