<svg width="138" height="138" viewBox="0 0 138 138" fill="none" xmlns="http://www.w3.org/2000/svg">
<g filter="url(#filter0_d)">
<path d="M69 127.5C103.518 127.5 131.5 99.5178 131.5 65C131.5 30.4822 103.518 2.5 69 2.5C34.4822 2.5 6.5 30.4822 6.5 65C6.5 99.5178 34.4822 127.5 69 127.5Z" fill="white" stroke="#5966BE" stroke-width="5"/>
<path d="M56.4363 51.0694L60.1905 52.5248C67.4739 55.344 77.0605 61.0511 81.3784 72.2266L83.0387 76.5314L101.758 55.1759C104.002 52.6206 105.5 49.4971 106.091 46.1489C107.22 39.7416 105.015 33.3523 100.194 29.0591C92.6165 22.3168 80.9923 23.0608 74.279 30.7167L56.4363 51.0694ZM96.4796 33.2964C99.8322 36.278 101.365 40.7229 100.579 45.1771C100.17 47.4996 99.1286 49.6674 97.5705 51.449L84.7238 66.1016C79.8756 57.1051 72.0334 51.8036 65.8594 48.8349L78.4697 34.4437C83.1359 29.1232 91.2152 28.6078 96.4796 33.2964Z" fill="#FF1F5A"/>
<path d="M62.1865 99.1904L78.9234 80.1L78.8259 79.6746C78.2078 76.9959 77.2671 74.621 76.1336 72.4713L60.043 90.8613C59.4314 91.5562 58.3798 91.6259 57.6915 91.0105C57.2394 90.6119 57.0559 90.0174 57.154 89.4611C57.2057 89.1679 57.3337 88.8843 57.5462 88.6409C57.5462 88.6409 74.1966 69.8045 74.4984 69.7192C68.5213 60.8805 58.9304 57.0143 54.264 55.5981L53.7492 55.4409L35.9095 75.7994C33.7629 78.2453 32.3329 81.2309 31.7688 84.4301C30.6883 90.5579 32.7984 96.6648 37.4091 100.771C44.653 107.221 55.7689 106.509 62.1865 99.1904Z" fill="#F0C80C"/>
</g>
<defs>
<filter id="filter0_d" x="0" y="0" width="138" height="138" filterUnits="userSpaceOnUse" color-interpolation-filters="sRGB">
<feFlood flood-opacity="0" result="BackgroundImageFix"/>
<feColorMatrix in="SourceAlpha" type="matrix" values="0 0 0 0 0 0 0 0 0 0 0 0 0 0 0 0 0 0 127 0"/>
<feOffset dy="4"/>
<feGaussianBlur stdDeviation="2"/>
<feColorMatrix type="matrix" values="0 0 0 0 0 0 0 0 0 0 0 0 0 0 0 0 0 0 0.25 0"/>
<feBlend mode="normal" in2="BackgroundImageFix" result="effect1_dropShadow"/>
<feBlend mode="normal" in="SourceGraphic" in2="effect1_dropShadow" result="shape"/>
</filter>
</defs>
</svg>
