<svg width="376" height="206" viewBox="0 0 376 206" fill="none" xmlns="http://www.w3.org/2000/svg">
<path d="M366.5 134C363.872 134 361.497 135.005 359.779 136.633C358.061 138.26 357 140.51 357 143C357 147.965 361.251 152 366.5 152C369.128 152 371.503 150.995 373.221 149.36C374.765 147.898 375.778 145.933 375.968 143.75C375.992 143.503 376 143.255 376 143C376 138.028 371.749 134 366.5 134Z" fill="#B73830"/>
<path d="M376 146C376 150.965 371.749 155 366.5 155C361.251 155 357 150.965 357 146V143C357 147.965 361.251 152 366.5 152C369.128 152 371.503 150.995 373.221 149.36C374.765 147.898 375.778 145.933 375.968 143.75H376V146Z" fill="#FF6960"/>
<path d="M360.366 136.126C360.164 136.288 359.966 136.455 359.779 136.633C359.593 136.809 359.417 136.996 359.247 137.187L372.633 149.869C372.836 149.706 373.034 149.539 373.221 149.36C373.407 149.185 373.585 149 373.755 148.81L360.366 136.126Z" fill="#FF6960"/>
<path d="M29.3353 126.55C31.2353 128.05 33.6853 128.8 36.6853 128.8C40.1853 128.8 44.6353 127.65 50.0353 125.35C53.2353 106.85 55.7353 88.65 57.5353 70.75H57.2353C51.8353 70.75 46.8853 72.6 42.3853 76.3C37.8853 80 34.1353 84.6 31.1353 90.1C28.2353 95.6 26.2353 101.05 25.1353 106.45C24.6353 108.95 24.3853 111.4 24.3853 113.8C24.3853 119.7 26.0353 123.95 29.3353 126.55ZM61.1353 23.2C61.2353 21.4 62.4853 19.85 64.8853 18.55C67.2853 17.15 69.7353 16.45 72.2353 16.45C75.3353 16.45 76.8353 17.6 76.7353 19.9C75.0353 52.9 71.4353 86.95 65.9353 122.05C67.5353 122.85 68.3353 123.9 68.3353 125.2C68.3353 126.7 67.1353 128.15 64.7353 129.55L63.8353 135.1C63.4353 137 61.9853 138.65 59.4853 140.05C57.0853 141.35 54.6853 142 52.2853 142C50.7853 142 49.5853 141.7 48.6853 141.1C47.7853 140.4 47.4853 139.4 47.7853 138.1C47.7853 137.6 47.8353 137.25 47.9353 137.05C41.5353 139.05 36.2353 140.05 32.0353 140.05C27.4353 140.05 23.2853 139.05 19.5853 137.05C15.8853 135.15 13.1853 132.4 11.4853 128.8C9.78525 125.2 8.93525 121.15 8.93525 116.65C8.93525 115.05 9.13525 112.85 9.53525 110.05C10.9353 101.95 13.9353 94.15 18.5353 86.65C23.1353 79.15 28.9353 73 35.9353 68.2C42.9353 63.4 50.4853 60.85 58.5853 60.55C59.7853 46.85 60.6353 34.4 61.1353 23.2ZM120.568 46C123.468 44.8 126.118 44.2 128.518 44.2C131.118 44.2 133.218 44.9 134.818 46.3C136.418 47.6 137.218 49.75 137.218 52.75C137.218 55.65 136.768 58.8 135.868 62.2C134.968 65.6 133.718 69.6 132.118 74.2L130.018 80.5C129.418 82.4 127.868 84 125.368 85.3C122.868 86.6 120.468 87.25 118.168 87.25C116.668 87.25 115.518 86.95 114.718 86.35C114.018 85.65 113.868 84.65 114.268 83.35C116.068 77.75 117.868 71.55 119.668 64.75C120.068 61.65 120.368 59.6 120.568 58.6L119.968 59.2C112.268 65.8 105.218 74.1 98.8181 84.1C95.9181 100 94.1181 115.95 93.4181 131.95C93.3181 133.85 92.0181 135.55 89.5181 137.05C87.1181 138.45 84.6181 139.15 82.0181 139.15C80.5181 139.15 79.2681 138.8 78.2681 138.1C77.2681 137.4 76.8181 136.35 76.9181 134.95C77.7181 120.55 79.2681 106.55 81.5681 92.95C80.5681 92.25 80.0681 91.45 80.0681 90.55C80.0681 89.95 80.2681 89.3 80.6681 88.6L82.9181 84.85C85.1181 73.35 87.8181 61.8 91.0181 50.2C91.5181 48.4 93.0681 46.85 95.6681 45.55C98.3681 44.15 100.918 43.45 103.318 43.45C104.818 43.45 105.968 43.75 106.768 44.35C107.568 44.95 107.768 45.85 107.368 47.05C105.768 52.65 104.768 56.35 104.368 58.15C110.368 52.15 115.768 48.1 120.568 46ZM196.406 55.6C197.106 54.4 198.806 53.15 201.506 51.85C204.306 50.45 206.756 49.75 208.856 49.75C211.856 49.75 213.156 51.15 212.756 53.95C212.756 54.25 212.706 54.7 212.606 55.3C212.506 55.9 212.406 56.35 212.306 56.65V56.95C211.306 63.65 210.156 71.7 208.856 81.1C207.656 90.4 206.706 97.7 206.006 103L202.106 131.8C201.806 133.8 200.356 135.5 197.756 136.9C195.256 138.3 192.706 139 190.106 139C188.506 139 187.206 138.65 186.206 137.95C185.306 137.25 184.956 136.25 185.156 134.95C186.256 126.35 188.006 113.45 190.406 96.25L188.906 98.8C186.306 103.2 184.356 106.4 183.056 108.4C178.556 115.4 173.756 121.3 168.656 126.1C163.656 130.9 157.906 134.1 151.406 135.7C148.906 136.3 146.656 136.6 144.656 136.6C135.256 136.6 130.556 130.2 130.556 117.4C130.556 111.4 131.506 104.6 133.406 97C135.306 89.3 137.456 82.1 139.856 75.4C142.356 68.7 144.506 63.6 146.306 60.1C147.006 58.7 148.556 57.5 150.956 56.5C153.456 55.4 155.856 54.85 158.156 54.85C159.556 54.85 160.656 55.1 161.456 55.6C162.356 56.1 162.806 56.8 162.806 57.7C162.806 58.1 162.656 58.7 162.356 59.5C155.656 74.2 151.306 87.55 149.306 99.55L148.556 103.6C147.756 107.8 147.356 111 147.356 113.2C147.356 114.3 147.406 115.1 147.506 115.6C148.706 120.7 150.656 123.1 153.356 122.8C154.456 122.7 155.756 121.75 157.256 119.95C158.856 118.15 159.856 117.05 160.256 116.65C165.156 110.95 169.606 104.75 173.606 98.05C177.606 91.25 182.256 82.75 187.556 72.55C190.256 67.05 193.206 61.4 196.406 55.6ZM238.262 123.7C242.362 118.2 245.912 112.4 248.912 106.3C251.512 101.3 254.262 95.1 257.162 87.7C260.062 80.3 261.512 74.2 261.512 69.4C261.512 67.8 261.312 66.55 260.912 65.65C257.912 65.85 256.112 64.95 255.512 62.95C254.812 60.45 254.062 59.2 253.262 59.2C252.662 59.2 252.062 59.6 251.462 60.4C250.862 61.1 250.012 62.4 248.912 64.3C247.512 66.4 246.012 69.3 244.412 73C241.112 80 238.412 86.85 236.312 93.55C233.912 100.45 232.012 106.7 230.612 112.3C229.212 117.9 228.512 123.25 228.512 128.35C228.512 130.55 228.662 132.7 228.962 134.8L232.112 131.5C234.012 129.3 236.062 126.7 238.262 123.7ZM269.912 52.9C272.912 54.1 275.062 55.8 276.362 58C277.662 60.2 278.312 63 278.312 66.4C278.312 69.6 277.512 75.1 275.912 82.9C271.512 103.5 267.912 122.3 265.112 139.3C262.412 156.3 260.462 173.1 259.262 189.7C259.162 191.1 258.962 192.3 258.662 193.3C258.462 194.4 258.012 195.7 257.312 197.2C256.212 199.4 254.462 201.35 252.062 203.05C249.762 204.85 247.562 205.75 245.462 205.75C243.562 205.75 242.112 204.9 241.112 203.2L236.762 195.7C230.462 184.7 225.112 175.7 220.712 168.7C220.412 168.3 220.262 167.8 220.262 167.2C220.262 165.5 221.512 163.9 224.012 162.4C226.512 160.9 229.062 160.15 231.662 160.15C234.262 160.15 236.062 161 237.062 162.7C238.462 165.3 240.062 168.1 241.862 171.1L244.862 176.35C247.062 158.65 249.512 141.95 252.212 126.25C247.612 132.65 242.762 138.15 237.662 142.75C232.662 147.35 228.012 149.65 223.712 149.65C220.412 149.65 217.562 148.15 215.162 145.15C213.162 142.65 212.162 139.05 212.162 134.35C212.162 131.75 212.362 129.2 212.762 126.7C213.262 124.2 214.012 120.8 215.012 116.5L215.912 112.9C218.912 99.3 223.362 86.05 229.262 73.15C232.062 67.25 234.862 62.35 237.662 58.45C240.562 54.55 244.212 51.6 248.612 49.6C251.312 48.3 254.312 47.65 257.612 47.65C262.512 47.65 266.262 49.3 268.862 52.6L269.912 52.9ZM302.941 68.5C302.941 72.3 303.891 75.65 305.791 78.55C307.791 81.45 310.191 83.9 312.991 85.9C315.791 87.9 319.591 90.25 324.391 92.95C330.891 96.65 335.841 100 339.241 103C342.741 106 345.041 109.75 346.141 114.25C346.541 116.25 346.741 117.7 346.741 118.6C346.741 125.6 343.041 130.65 335.641 133.75C328.241 136.75 319.841 138.25 310.441 138.25C306.741 138.25 303.491 138 300.691 137.5C297.391 136.9 293.941 135.75 290.341 134.05C286.841 132.25 283.891 130.1 281.491 127.6C279.191 125 278.041 122.35 278.041 119.65C278.041 115.45 281.291 111.6 287.791 108.1C289.591 107.2 291.341 106.75 293.041 106.75C294.641 106.75 295.941 107.1 296.941 107.8C298.041 108.5 298.591 109.35 298.591 110.35C298.591 112.15 297.141 113.9 294.241 115.6C293.641 115.9 293.341 116.35 293.341 116.95C293.341 118.15 294.291 119.6 296.191 121.3C298.091 123 299.591 124.15 300.691 124.75C303.691 126.45 308.491 127.5 315.091 127.9C315.891 128 317.291 128.05 319.291 128.05C322.891 128.05 325.791 127.45 327.991 126.25C330.191 125.05 331.141 122.85 330.841 119.65C330.441 115.35 326.091 110.5 317.791 105.1L312.091 101.5C306.891 98.3 302.591 95.5 299.191 93.1C295.891 90.6 293.041 87.65 290.641 84.25C288.241 80.75 287.041 76.85 287.041 72.55C287.041 69.85 287.541 67.15 288.541 64.45C290.741 57.95 294.841 52.95 300.841 49.45C306.841 45.85 313.291 44.05 320.191 44.05C327.291 44.05 333.241 45.85 338.041 49.45C342.941 53.05 345.391 58.15 345.391 64.75C345.391 66.85 345.091 69.1 344.491 71.5C344.091 73.3 342.591 74.85 339.991 76.15C337.391 77.45 334.941 78.1 332.641 78.1C331.241 78.1 330.141 77.8 329.341 77.2C328.641 76.6 328.491 75.75 328.891 74.65C329.491 72.55 329.791 70.45 329.791 68.35C329.791 65.05 328.941 62.25 327.241 59.95C325.541 57.65 323.041 56.05 319.741 55.15C317.941 54.75 316.591 54.55 315.691 54.55C312.091 54.55 309.041 55.85 306.541 58.45C304.141 60.95 302.941 64.3 302.941 68.5Z" fill="#FF6960"/>
<path d="M21.45 121.55C23.35 123.05 25.8 123.8 28.8 123.8C32.3 123.8 36.75 122.65 42.15 120.35C45.35 101.85 47.85 83.65 49.65 65.75H49.35C43.95 65.75 39 67.6 34.5 71.3C30 75 26.25 79.6 23.25 85.1C20.35 90.6 18.35 96.05 17.25 101.45C16.75 103.95 16.5 106.4 16.5 108.8C16.5 114.7 18.15 118.95 21.45 121.55ZM53.25 18.2C53.35 16.4 54.6 14.85 57 13.55C59.4 12.15 61.85 11.45 64.35 11.45C67.45 11.45 68.95 12.6 68.85 14.9C67.15 47.9 63.55 81.95 58.05 117.05C59.65 117.85 60.45 118.9 60.45 120.2C60.45 121.7 59.25 123.15 56.85 124.55L55.95 130.1C55.55 132 54.1 133.65 51.6 135.05C49.2 136.35 46.8 137 44.4 137C42.9 137 41.7 136.7 40.8 136.1C39.9 135.4 39.6 134.4 39.9 133.1C39.9 132.6 39.95 132.25 40.05 132.05C33.65 134.05 28.35 135.05 24.15 135.05C19.55 135.05 15.4 134.05 11.7 132.05C8 130.15 5.3 127.4 3.6 123.8C1.9 120.2 1.05 116.15 1.05 111.65C1.05 110.05 1.25 107.85 1.65 105.05C3.05 96.95 6.05 89.15 10.65 81.65C15.25 74.15 21.05 68 28.05 63.2C35.05 58.4 42.6 55.85 50.7 55.55C51.9 41.85 52.75 29.4 53.25 18.2ZM112.683 41C115.583 39.8 118.233 39.2 120.633 39.2C123.233 39.2 125.333 39.9 126.933 41.3C128.533 42.6 129.333 44.75 129.333 47.75C129.333 50.65 128.883 53.8 127.983 57.2C127.083 60.6 125.833 64.6 124.233 69.2L122.133 75.5C121.533 77.4 119.983 79 117.483 80.3C114.983 81.6 112.583 82.25 110.283 82.25C108.783 82.25 107.633 81.95 106.833 81.35C106.133 80.65 105.983 79.65 106.383 78.35C108.183 72.75 109.983 66.55 111.783 59.75C112.183 56.65 112.483 54.6 112.683 53.6L112.083 54.2C104.383 60.8 97.3328 69.1 90.9328 79.1C88.0328 95 86.2328 110.95 85.5328 126.95C85.4328 128.85 84.1328 130.55 81.6328 132.05C79.2328 133.45 76.7328 134.15 74.1328 134.15C72.6328 134.15 71.3828 133.8 70.3828 133.1C69.3828 132.4 68.9328 131.35 69.0328 129.95C69.8328 115.55 71.3828 101.55 73.6828 87.95C72.6828 87.25 72.1828 86.45 72.1828 85.55C72.1828 84.95 72.3828 84.3 72.7828 83.6L75.0328 79.85C77.2328 68.35 79.9328 56.8 83.1328 45.2C83.6328 43.4 85.1828 41.85 87.7828 40.55C90.4828 39.15 93.0328 38.45 95.4328 38.45C96.9328 38.45 98.0828 38.75 98.8828 39.35C99.6828 39.95 99.8828 40.85 99.4828 42.05C97.8828 47.65 96.8828 51.35 96.4828 53.15C102.483 47.15 107.883 43.1 112.683 41ZM188.521 50.6C189.221 49.4 190.921 48.15 193.621 46.85C196.421 45.45 198.871 44.75 200.971 44.75C203.971 44.75 205.271 46.15 204.871 48.95C204.871 49.25 204.821 49.7 204.721 50.3C204.621 50.9 204.521 51.35 204.421 51.65V51.95C203.421 58.65 202.271 66.7 200.971 76.1C199.771 85.4 198.821 92.7 198.121 98L194.221 126.8C193.921 128.8 192.471 130.5 189.871 131.9C187.371 133.3 184.821 134 182.221 134C180.621 134 179.321 133.65 178.321 132.95C177.421 132.25 177.071 131.25 177.271 129.95C178.371 121.35 180.121 108.45 182.521 91.25L181.021 93.8C178.421 98.2 176.471 101.4 175.171 103.4C170.671 110.4 165.871 116.3 160.771 121.1C155.771 125.9 150.021 129.1 143.521 130.7C141.021 131.3 138.771 131.6 136.771 131.6C127.371 131.6 122.671 125.2 122.671 112.4C122.671 106.4 123.621 99.6 125.521 92C127.421 84.3 129.571 77.1 131.971 70.4C134.471 63.7 136.621 58.6 138.421 55.1C139.121 53.7 140.671 52.5 143.071 51.5C145.571 50.4 147.971 49.85 150.271 49.85C151.671 49.85 152.771 50.1 153.571 50.6C154.471 51.1 154.921 51.8 154.921 52.7C154.921 53.1 154.771 53.7 154.471 54.5C147.771 69.2 143.421 82.55 141.421 94.55L140.671 98.6C139.871 102.8 139.471 106 139.471 108.2C139.471 109.3 139.521 110.1 139.621 110.6C140.821 115.7 142.771 118.1 145.471 117.8C146.571 117.7 147.871 116.75 149.371 114.95C150.971 113.15 151.971 112.05 152.371 111.65C157.271 105.95 161.721 99.75 165.721 93.05C169.721 86.25 174.371 77.75 179.671 67.55C182.371 62.05 185.321 56.4 188.521 50.6ZM230.377 118.7C234.477 113.2 238.027 107.4 241.027 101.3C243.627 96.3 246.377 90.1 249.277 82.7C252.177 75.3 253.627 69.2 253.627 64.4C253.627 62.8 253.427 61.55 253.027 60.65C250.027 60.85 248.227 59.95 247.627 57.95C246.927 55.45 246.177 54.2 245.377 54.2C244.777 54.2 244.177 54.6 243.577 55.4C242.977 56.1 242.127 57.4 241.027 59.3C239.627 61.4 238.127 64.3 236.527 68C233.227 75 230.527 81.85 228.427 88.55C226.027 95.45 224.127 101.7 222.727 107.3C221.327 112.9 220.627 118.25 220.627 123.35C220.627 125.55 220.777 127.7 221.077 129.8L224.227 126.5C226.127 124.3 228.177 121.7 230.377 118.7ZM262.027 47.9C265.027 49.1 267.177 50.8 268.477 53C269.777 55.2 270.427 58 270.427 61.4C270.427 64.6 269.627 70.1 268.027 77.9C263.627 98.5 260.027 117.3 257.227 134.3C254.527 151.3 252.577 168.1 251.377 184.7C251.277 186.1 251.077 187.3 250.777 188.3C250.577 189.4 250.127 190.7 249.427 192.2C248.327 194.4 246.577 196.35 244.177 198.05C241.877 199.85 239.677 200.75 237.577 200.75C235.677 200.75 234.227 199.9 233.227 198.2L228.877 190.7C222.577 179.7 217.227 170.7 212.827 163.7C212.527 163.3 212.377 162.8 212.377 162.2C212.377 160.5 213.627 158.9 216.127 157.4C218.627 155.9 221.177 155.15 223.777 155.15C226.377 155.15 228.177 156 229.177 157.7C230.577 160.3 232.177 163.1 233.977 166.1L236.977 171.35C239.177 153.65 241.627 136.95 244.327 121.25C239.727 127.65 234.877 133.15 229.777 137.75C224.777 142.35 220.127 144.65 215.827 144.65C212.527 144.65 209.677 143.15 207.277 140.15C205.277 137.65 204.277 134.05 204.277 129.35C204.277 126.75 204.477 124.2 204.877 121.7C205.377 119.2 206.127 115.8 207.127 111.5L208.027 107.9C211.027 94.3 215.477 81.05 221.377 68.15C224.177 62.25 226.977 57.35 229.777 53.45C232.677 49.55 236.327 46.6 240.727 44.6C243.427 43.3 246.427 42.65 249.727 42.65C254.627 42.65 258.377 44.3 260.977 47.6L262.027 47.9ZM295.056 63.5C295.056 67.3 296.006 70.65 297.906 73.55C299.906 76.45 302.306 78.9 305.106 80.9C307.906 82.9 311.706 85.25 316.506 87.95C323.006 91.65 327.956 95 331.356 98C334.856 101 337.156 104.75 338.256 109.25C338.656 111.25 338.856 112.7 338.856 113.6C338.856 120.6 335.156 125.65 327.756 128.75C320.356 131.75 311.956 133.25 302.556 133.25C298.856 133.25 295.606 133 292.806 132.5C289.506 131.9 286.056 130.75 282.456 129.05C278.956 127.25 276.006 125.1 273.606 122.6C271.306 120 270.156 117.35 270.156 114.65C270.156 110.45 273.406 106.6 279.906 103.1C281.706 102.2 283.456 101.75 285.156 101.75C286.756 101.75 288.056 102.1 289.056 102.8C290.156 103.5 290.706 104.35 290.706 105.35C290.706 107.15 289.256 108.9 286.356 110.6C285.756 110.9 285.456 111.35 285.456 111.95C285.456 113.15 286.406 114.6 288.306 116.3C290.206 118 291.706 119.15 292.806 119.75C295.806 121.45 300.606 122.5 307.206 122.9C308.006 123 309.406 123.05 311.406 123.05C315.006 123.05 317.906 122.45 320.106 121.25C322.306 120.05 323.256 117.85 322.956 114.65C322.556 110.35 318.206 105.5 309.906 100.1L304.206 96.5C299.006 93.3 294.706 90.5 291.306 88.1C288.006 85.6 285.156 82.65 282.756 79.25C280.356 75.75 279.156 71.85 279.156 67.55C279.156 64.85 279.656 62.15 280.656 59.45C282.856 52.95 286.956 47.95 292.956 44.45C298.956 40.85 305.406 39.05 312.306 39.05C319.406 39.05 325.356 40.85 330.156 44.45C335.056 48.05 337.506 53.15 337.506 59.75C337.506 61.85 337.206 64.1 336.606 66.5C336.206 68.3 334.706 69.85 332.106 71.15C329.506 72.45 327.056 73.1 324.756 73.1C323.356 73.1 322.256 72.8 321.456 72.2C320.756 71.6 320.606 70.75 321.006 69.65C321.606 67.55 321.906 65.45 321.906 63.35C321.906 60.05 321.056 57.25 319.356 54.95C317.656 52.65 315.156 51.05 311.856 50.15C310.056 49.75 308.706 49.55 307.806 49.55C304.206 49.55 301.156 50.85 298.656 53.45C296.256 55.95 295.056 59.3 295.056 63.5Z" fill="#B73830"/>
</svg>
