<svg width="512" height="512" viewBox="0 0 512 512" fill="none" xmlns="http://www.w3.org/2000/svg">
<path d="M147.808 244.252C143.481 244.252 139.974 240.744 139.974 236.418V222.845C139.974 218.519 143.48 215.011 147.808 215.011C152.136 215.011 155.642 218.519 155.642 222.845V236.418C155.642 240.744 152.135 244.252 147.808 244.252Z" fill="#605B58"/>
<rect x="139" y="219" width="17" height="25" rx="8.5" fill="#D00303"/>
<path d="M148.725 229.622C148.07 229.622 147.405 229.539 146.742 229.366L119.855 222.352C115.669 221.259 113.161 216.981 114.253 212.795C115.346 208.609 119.627 206.101 123.81 207.192L150.697 214.206C154.883 215.299 157.391 219.577 156.299 223.763C155.381 227.287 152.204 229.622 148.725 229.622Z" fill="#605B58"/>
<path d="M409.214 392.653L398.32 431.551C390.956 457.863 369.502 477.844 342.741 483.349L340.579 483.788L203.223 512L247.03 426.328L336.368 394.585L360.611 385.978L409.214 392.653Z" fill="#EFD873"/>
<path d="M409.214 392.653L398.32 431.551C390.956 457.863 369.502 477.844 342.741 483.349L340.579 483.788C361.177 449.559 345.833 408.781 345.833 408.781L336.37 394.586L360.613 385.979L409.214 392.653Z" fill="#E0C865"/>
<path d="M369.974 413.906L350.518 355.863L239.188 391.019L255.536 464.587L275.598 464.988C313.854 465.752 349.696 446.353 369.974 413.906Z" fill="#A35D45"/>
<path d="M358.789 104.999V323.449C358.789 360.767 328.536 391.019 291.219 391.019H195.699C186.959 391.019 179.875 383.934 179.875 375.196V298.518V278.436H162.12C152.768 278.436 145.187 270.855 145.187 261.503V79.439" fill="#BA7052"/>
<path d="M145.188 79.439V85.592L307.361 104.997V323.447C307.361 360.765 277.109 391.017 239.791 391.017H291.219C328.537 391.017 358.789 360.765 358.789 323.447V104.999L145.188 79.439Z" fill="#A35D45"/>
<path d="M421.493 123.383C420.701 113.743 415.017 105.686 407.082 101.45C411.707 93.733 412.45 83.91 408.177 75.245C403.917 66.591 395.714 61.187 386.792 60.14C388.289 51.291 385.416 41.895 378.321 35.383C371.213 28.847 361.597 26.79 352.894 29.042C351.082 20.242 344.97 12.512 335.951 9.02C326.945 5.539 317.231 7.134 309.953 12.416C305.059 4.942 296.613 0 287.009 0C279.134 0 272.026 3.323 267.036 8.654C262.033 3.324 254.937 0 247.049 0C239.174 0 232.066 3.323 227.076 8.654C222.074 3.324 214.977 0 207.09 0C198.874 0 191.511 3.615 186.484 9.348C180.106 3.067 170.782 0.036 161.386 2.094C150.809 4.419 143.008 12.55 140.622 22.408C130.848 19.766 119.979 22.664 112.857 30.782C105.725 38.913 104.265 50.074 108.171 59.422C98.7131 63.074 91.6541 71.874 90.7411 82.657C90.0111 91.287 93.3591 99.308 99.1771 104.846C93.7841 109.848 90.4131 116.993 90.4131 124.929C90.4131 138.025 99.6141 148.98 111.908 151.682C110.325 165.204 119.052 178.106 132.623 181.418C143.893 184.169 155.214 179.519 161.519 170.585C167.593 175.295 175.614 177.426 183.732 175.783C188.077 174.907 191.971 173.044 195.234 170.476C197.704 173.799 200.99 176.623 204.959 178.595C209.378 180.81 214.101 181.698 218.714 181.443C218.775 187.42 220.807 193.42 224.884 198.423C229.862 204.521 236.935 207.917 244.225 208.428C243.25 215.658 245.162 223.278 250.153 229.376C255.144 235.502 262.254 238.892 269.562 239.375C268.975 243.639 269.362 248.053 270.86 252.237C274.713 263.002 285.194 270.394 296.635 270.394C309.54 270.394 320.948 261.004 323.487 248.363C324.017 245.726 324.117 243.055 323.854 240.433C329.324 239.168 334.419 236.219 338.315 231.739C342.304 236.732 347.735 239.982 353.585 241.32C353.039 245.533 353.446 249.88 354.928 253.98C358.814 264.73 369.224 272.144 380.693 272.144C393.611 272.144 405.002 262.739 407.544 250.101C409.173 241.998 406.878 233.622 401.786 227.377C407.812 223.14 412.125 216.5 413.181 208.619C414.229 200.805 411.878 193.331 407.265 187.66C413.206 183.424 417.452 176.827 418.5 169.013C419.631 160.626 416.832 152.618 411.525 146.824C418.255 141.324 422.26 132.707 421.493 123.383Z" fill="#75706B"/>
<path d="M421.491 123.381C420.707 113.746 415.017 105.68 407.082 101.451C411.703 93.734 412.455 83.913 408.171 75.249C403.92 66.595 395.713 61.189 386.786 60.142C388.29 51.292 385.412 41.896 378.317 35.378C371.21 28.85 361.597 26.789 352.889 29.045C351.08 20.239 344.965 12.51 335.951 9.023C326.948 5.535 317.226 7.126 309.956 12.412C305.063 4.937 296.616 0 287.014 0C279.134 0 272.027 3.325 267.035 8.654C262.032 3.324 280.889 20.24 282.698 29.047C291.406 26.791 301.02 28.851 308.127 35.38C315.222 41.898 318.089 51.293 316.596 60.144C325.523 61.191 333.719 66.596 337.981 75.251C342.254 83.916 341.513 93.736 336.892 101.453C344.827 105.682 350.505 113.747 351.301 123.383C352.065 132.713 348.064 141.324 341.328 146.827C346.636 152.625 349.437 160.626 348.303 169.018C347.256 176.833 343.006 183.427 337.066 187.667C341.687 193.335 344.031 200.811 342.984 208.626C341.927 216.506 337.621 223.144 331.595 227.384C333.317 229.488 334.712 231.831 335.747 234.327C336.652 233.543 337.513 232.67 338.32 231.744C342.309 236.736 347.737 239.984 353.59 241.324C353.045 245.531 353.448 249.88 354.93 253.978C358.821 264.725 369.231 272.147 380.696 272.147C393.612 272.147 405.001 262.741 407.541 250.097C409.176 241.999 406.877 233.618 401.786 227.383C407.813 223.143 412.13 216.505 413.187 208.625C414.234 200.81 411.879 193.333 407.269 187.666C413.209 183.426 417.449 176.832 418.506 169.017C419.629 160.624 416.838 152.624 411.531 146.826C418.254 141.322 422.265 132.711 421.491 123.381Z" fill="#605B58"/>
<path d="M210.912 332.519H176.834C172.507 332.519 169 329.011 169 324.685C169 320.359 172.506 316.851 176.834 316.851H210.912C215.239 316.851 218.746 320.359 218.746 324.685C218.746 329.012 215.238 332.519 210.912 332.519Z" fill="#8E4A38"/>
<path d="M210.912 351.641H176.198C171.871 351.641 168.364 348.133 168.364 343.807C168.364 339.481 171.87 335.973 176.198 335.973H210.912C215.239 335.973 218.746 339.481 218.746 343.807C218.746 348.133 215.238 351.641 210.912 351.641Z" fill="#8E4A38"/>
<path d="M184.368 244.252C180.041 244.252 176.534 240.744 176.534 236.418V222.845C176.534 218.519 180.04 215.011 184.368 215.011C188.696 215.011 192.202 218.519 192.202 222.845V236.418C192.202 240.744 188.696 244.252 184.368 244.252Z" fill="#605B58"/>
<path d="M295.611 153.931C291.284 153.931 287.777 150.423 287.777 146.097C287.777 141.771 291.283 138.263 295.611 138.263C303.161 138.263 309.303 132.12 309.303 124.57C309.303 117.02 303.16 110.877 295.611 110.877C291.284 110.877 287.777 107.369 287.777 103.043C287.777 95.4931 281.634 89.3501 274.084 89.3501C266.534 89.3501 260.392 95.4931 260.392 103.043C260.392 107.369 256.886 110.877 252.558 110.877C248.231 110.877 244.724 107.369 244.724 103.043C244.724 86.8541 257.894 73.6821 274.084 73.6821C287.864 73.6821 299.459 83.2251 302.604 96.0491C315.428 99.1941 324.971 110.788 324.971 124.568C324.972 140.76 311.8 153.931 295.611 153.931Z" fill="#605B58"/>
<path d="M198.546 98.779C194.219 98.779 190.712 95.271 190.712 90.945C190.712 86.619 194.218 83.111 198.546 83.111C205.044 83.111 210.33 77.825 210.33 71.326C210.33 64.827 205.043 59.541 198.546 59.541C192.047 59.541 186.761 64.827 186.761 71.326C186.761 75.652 183.255 79.16 178.927 79.16C174.6 79.16 171.093 75.652 171.093 71.326C171.093 56.189 183.409 43.873 198.546 43.873C213.683 43.873 225.998 56.188 225.998 71.326C225.998 86.464 213.683 98.779 198.546 98.779Z" fill="#605B58"/>
<rect x="176" y="219" width="17" height="25" rx="8.5" fill="#D00303"/>
<path d="M165.288 229.621C161.586 229.621 158.295 226.987 157.595 223.216C156.805 218.962 159.614 214.873 163.867 214.084L201.655 207.07C205.907 206.278 209.998 209.089 210.787 213.342C211.577 217.596 208.768 221.685 204.515 222.474L166.727 229.488C166.244 229.578 165.762 229.621 165.288 229.621Z" fill="#605B58"/>
</svg>
